<?xml version="1.0" encoding="utf-8"?>
<!-- Generator: Adobe Illustrator 19.0.0, SVG Export Plug-In . SVG Version: 6.00 Build 0)  -->
<svg version="1.1" id="Layer_1" xmlns="http://www.w3.org/2000/svg" xmlns:xlink="http://www.w3.org/1999/xlink" x="0px" y="0px"
	 viewBox="501.1 79.6 1067.9 513" style="enable-background:new 501.1 79.6 1067.9 513;" xml:space="preserve">
<style type="text/css">
	.st0{fill:none;}
	.st1{fill:#C9E5F4;}
	.st2{fill:#B6C6D4;}
	.st3{fill:#BBD9ED;}
	.st4{fill:#EECBAE;}
	.st5{fill:#CBE5F3;}
	.st6{fill:#FCD9BC;}
	.st7{fill:#D5EDF7;}
	.st8{fill:#F3F7FB;}
	.st9{fill:#FFFFFF;}
	.st10{fill:#E9F0F7;}
	.st11{fill:#FBFBFB;}
	.st12{fill:#F5F7F8;}
	.st13{fill:#E6EAEE;}
	.st14{fill:#DEE8F2;}
	.st15{fill:#EDF1F3;}
	.st16{fill:#ECF1F7;}
	.st17{fill:#EBEBEB;}
</style>
<path id="XMLID_33_" class="st0" d="M1009.5-76"/>
<path id="XMLID_20_" class="st1" d="M1214.6,320.7c2-5.8,5-14.2,9-24.2c6.8-17,10.4-26.1,17.1-37.2c3-4.9,8.2-13.4,17-23.1
	c12.4-13.6,17.7-17.4,23.2-21c11-7.1,14.5-10,32.2-15.7c8.5-2.8,22.4-2.7,22.6-4.8c0.7-8.7-35-16.3-63.8,5.9
	c-11.4,8.8-16.1,15.5-17.1,17.3c-5.7,10-6.2,19.8-6.1,24.7c-2,2.2-9,12.6-11.7,17.5c-5.3,9.8-7.4,14.5-15.5,36.4
	c-2,5.2-4.9,13.1-8.8,22.6C1213.3,319.6,1214,320.2,1214.6,320.7z"/>
<path id="XMLID_31_" class="st2" d="M1295,252.4c-0.7,5.6-6.9,16.4-9.6,20.1c-13.6,18.6-36,25.6-43.2,26.7c-1.9,0.3-4.7,0.2-6.6,0.1
	c1.7-2.8,3.8-5.7,6.1-8.7c5.6-7.1,11-12.4,16-16.6c-0.8,0.3-4.1,2.1-6.1,3.9c-6.8,6-9.6,10.2-16.1,19.2c-0.5,0.7-1,1.5-1.5,2.2
	l-0.1,0.1c-0.2,0.3-0.8,1.4-1.6,3c-1,1.8-2.3,4.3-3.5,6.8c-1.7,3.7-6.9,17.7-13.5,36.4l-1.9-1.9c4.5-9.7,6.5-17.1,10.9-27.4
	c2.8-6.6,5.5-13,8.1-19.4c0.3-4.4,1.3-11.5,5.1-19.2c1.3-2.7,11.6-22.7,34.2-27.6c8.3-1.8,17.4-2,22,0.1
	C1294.5,250.6,1295.1,251.5,1295,252.4z"/>
<path id="XMLID_22_" class="st3" d="M1215.1,360.1c2.2-6.6,5.2-15.1,9-25c6.5-17.3,11.1-34,38.2-26.8c0.3,0.1,0.5,0,0.8-0.1
	c2.4-0.5,15-2.8,18.7-3c6.8-0.4,12.9,0,17.8,0.7c0.6,0.1,0.9,0.7,0.5,1.2c-1.5,2-4.5,5.3-7.2,6.5c-13.2,5.5-20.1-0.8-30.4-3.3
	c-14.7,5-25,10-35.2,21.1c-2.5,4.6-4.2,10-6.3,16.5c-2.2,6.5-3.8,11.2-4.2,12.8L1215.1,360.1z"/>
<g id="XMLID_23_">
	<path id="XMLID_69_" class="st4" d="M1209.9,384.9c3.4-16,11.5-27,17.1-31.4c6.7-5.3,15.3-8.1,15.6-8.2c9.6-2.9,19.6-1.8,20.9-1.6
		c4.2,0.5,27.6,3.4,34.8,19.7c0.5,1,4.8,11.2,0,16.7c-4.2,4.7-12.7,2.9-13.5,2.8c-12.4-2.8-21.7-17.7-25.1-22.1
		c-2.9-3.7-10-11.3-15.3-13.9c-3.6,0-15.3,4.8-22.7,15c-6.3,8.8-8.3,20.2-9,24.8C1211.9,386.1,1210.9,385.5,1209.9,384.9z"/>
</g>
<path id="XMLID_36_" class="st5" d="M648.2,243.9c-0.3,0.9-0.6,1.9-0.9,2.8c-10.9-7.8-21.8-15.7-32.7-23.5
	c-2.5,2.4-6.6,5.6-12.2,8.1c-19.4,8.6-39.5-0.3-49.8-4.9c-7.8-3.5-27.9-12.3-37.6-32.7c-2.4-5.1-6.1-15.8-3-26.4
	c0.5-1.8,2-4.9,6.9-7.8c21.6-12.8,59.1,7.6,64.5,10.7c13.3,7.5,32.8,18.6,35.3,37.6c0.7,5.1-0.1,9.4-0.8,12.4
	c-0.2-0.1-0.3-0.2-0.4-0.3c-6-4.2-11.9-8.2-17.8-12.3c0-1.7-1.4-5-2.8-7.5c-1.3-2.5-2.3-3.6-2.6-3.4c-0.2,0.2,0.6,1.4,1.5,3.7
	c1,2.4,1.6,4.9,2,6.4c-3-2.1-10.1-5.9-23.5-12.8c0.2-4.1-3.2-10.7-3.4-10.6s1.7,6.2,1.8,9.7c-10.3-4.1-12.3-4.6-12.4-4.3
	c-0.4,0.8,13.4,5.6,39.7,21.8C615.6,220.5,639.4,237.3,648.2,243.9z"/>
<path id="XMLID_25_" class="st5" d="M634.6,234.5L634.6,234.5z"/>
<path id="XMLID_40_" class="st6" d="M654.3,271.4l-0.1,0.7c-6.3-1.2-26.5-4.1-30.9-4.5c-6-0.6-10.7-0.6-15.4-0.4
	c-0.6-1.1-1.9-2.8-4.1-3.7c-1.9-0.8-3.6-0.8-3.5-0.5c1,0.4,1.5,0.5,3.4,2.1c1.1,0.9,1.7,1.9,2.2,2.7c-0.9,0-2.1,0.2-3.5,0.6
	c-1.7,0.5-3.8,1.3-3.8,1.6c0.1,0.3,3.2-0.5,6-0.8c2.3-0.2,3.7,0.1,7.1,0c-1.1,0.6-6.3,6.4-6.4,7.4c0.8-0.3,5.3-4.8,9.2-7.4
	c3.1,0.2,6.7,0.6,10.3,1c-0.1,2.4-0.6,4.2-2.6,7.5c-7.8,12.6-37.1,11.9-42,11.5c-12-1.1-26.2-4.3-27.3-15.5
	c-1-10.8,16.7-23.7,32.9-25.8c13.9-1.8,33.3,0.5,37.5,11.9c0.8,2.1,2.1,5,2,6.6c10.5,1.1,18.6,2,27.7,3.6
	C653.8,269.8,654.4,270.6,654.3,271.4z"/>
<path id="XMLID_24_" class="st7" d="M591.5,290.9c-7.4,1.5-32.5,15.1-34.5,22.5c0.4,3.5,12.6,13.7,27.3,13.4
	c32.6-0.7,38.9-27.8,38.5-29.6c24.7,9.6,22,13.1,57.7,35.1c3.6-1.7,5.5-3.3,6.1-5.1C645.5,303.2,629.8,283.2,591.5,290.9z"/>
<g id="XMLID_136_">
	<path id="XMLID_124_" class="st8" d="M814.7,423.2H642.5c-2.9,0-5.3-2.4-5.3-5.3v-326c0-2.9,2.4-5.3,5.3-5.3h172.2
		c2.9,0,5.3,2.4,5.3,5.3V418C819.9,420.8,817.6,423.2,814.7,423.2z"/>
	<path id="XMLID_125_" class="st9" d="M803.3,180.8H653.9c-2.3,0-4.2-1.9-4.2-4.2v-54.1c0-2.3,1.9-4.2,4.2-4.2h149.4
		c2.3,0,4.2,1.9,4.2,4.2v54.1C807.4,179,805.5,180.8,803.3,180.8z"/>
	<path id="XMLID_127_" class="st9" d="M803.3,237.3H653.9c-2.3,0-4.2-1.9-4.2-4.2v-38.3c0-2.3,1.9-4.2,4.2-4.2h149.4
		c2.3,0,4.2,1.9,4.2,4.2v38.3C807.4,235.4,805.5,237.3,803.3,237.3z"/>
	<path id="XMLID_128_" class="st9" d="M803.3,293.7H653.9c-2.3,0-4.2-1.9-4.2-4.2v-38.3c0-2.3,1.9-4.2,4.2-4.2h149.4
		c2.3,0,4.2,1.9,4.2,4.2v38.3C807.4,291.8,805.5,293.7,803.3,293.7z"/>
	<path id="XMLID_129_" class="st9" d="M803.3,349.7H653.9c-2.3,0-4.2-1.9-4.2-4.2v-38.3c0-2.3,1.9-4.2,4.2-4.2h149.4
		c2.3,0,4.2,1.9,4.2,4.2v38.3C807.4,347.8,805.5,349.7,803.3,349.7z"/>
	<circle id="XMLID_130_" class="st10" cx="675.9" cy="149.9" r="13.9"/>
	<circle id="XMLID_132_" class="st10" cx="675.9" cy="214" r="13.9"/>
	<circle id="XMLID_133_" class="st10" cx="675.9" cy="328.1" r="13.9"/>
	<circle id="XMLID_131_" class="st10" cx="675.9" cy="270.4" r="13.9"/>
	<g id="XMLID_135_">
		<path id="XMLID_126_" class="st9" d="M711.9,112.1h-1.5c-1.5,0-2.7-1.2-2.7-2.7v-1.5c0-1.5,1.2-2.7,2.7-2.7h1.5
			c1.5,0,2.7,1.2,2.7,2.7v1.5C714.5,110.9,713.3,112.1,711.9,112.1z"/>
		<path id="XMLID_134_" class="st9" d="M747.2,111.6h-23c-1.3,0-2.3-1-2.3-2.3V108c0-1.3,1-2.3,2.3-2.3h23c1.3,0,2.3,1,2.3,2.3v1.3
			C749.5,110.6,748.4,111.6,747.2,111.6z"/>
	</g>
</g>
<g id="XMLID_30_">
	<path id="XMLID_27_" class="st2" d="M663.2,300.9c0.1-1.3,1.2-2.2,2.5-2.2c14.7,0.7,39.6,4,65.9,18.3c13.1,7.1,23.4,15.2,31.3,22.6
		c-1.9,2.2-1.1,1.2-3,3.5c-9.3-7.3-18.6-14.7-27.9-22c-0.3-0.2-0.6-0.2-0.9-0.1c-5.6,3.3-18.3,9.6-34.1,7.6
		c-2.4-0.3-28.3-3.9-33.1-20.5C663.2,305.4,663.1,302.9,663.2,300.9z"/>
	<path id="XMLID_29_" class="st2" d="M748.6,359.8c0.2-0.1,0.3-0.3,0.2-0.5c-2.5-3.8-13.1-19-33.4-23c-3.2-0.6-22-4.3-37,7.4
		c-16.9,13.1-17.4,33.3-17.9,37.4c0,0.2-0.3,3.1-0.6,4.1c-0.2,0.6-1.1,1.7-1.3,2c-0.5,0.7-0.1,1.7,0.8,1.8
		c7.5,0.9,18.8-15.7,18.8-15.7c5.1-7.4,9.8-14.7,9.5-24.5c-0.1-2.3-0.4-4.1-0.7-5.5c0-0.2,0-0.3,0.2-0.4c4.5-1.8,14.6-5.2,27.1-2.8
		c18.5,3.5,28.6,16.9,31,20.3c0.1,0.1,0.2,0.2,0.4,0.1L748.6,359.8z"/>
</g>
<g id="XMLID_138_">
	<path id="XMLID_150_" class="st10" d="M890.3,461.2H718.1c-2.9,0-5.3-2.4-5.3-5.3V121.3c0-2.9,2.4-5.3,5.3-5.3h172.2
		c2.9,0,5.3,2.4,5.3,5.3V456C895.6,458.8,893.2,461.2,890.3,461.2z"/>
	<path id="XMLID_149_" class="st9" d="M875.4,366.3H733c-2.3,0-4.2-1.9-4.2-4.2V152.9c0-2.3,1.9-4.2,4.2-4.2h142.4
		c2.3,0,4.2,1.9,4.2,4.2v209.2C879.6,364.5,877.7,366.3,875.4,366.3z"/>
	<g id="XMLID_139_">
		<path id="XMLID_141_" class="st9" d="M788.3,139.7h-1.2c-1.1,0-2.1-0.9-2.1-2.1v-1.3c0-1.1,0.9-2.1,2.1-2.1h1.2
			c1.1,0,2.1,0.9,2.1,2.1v1.3C790.3,138.8,789.4,139.7,788.3,139.7z"/>
		<path id="XMLID_140_" class="st9" d="M818.6,139.4h-20.7c-1,0-1.8-0.8-1.8-1.8v-1c0-1,0.8-1.8,1.8-1.8h20.7c1,0,1.8,0.8,1.8,1.8v1
			C820.4,138.5,819.6,139.4,818.6,139.4z"/>
	</g>
	<circle id="XMLID_137_" class="st9" cx="803.8" cy="422.8" r="17.5"/>
</g>
<g id="XMLID_19_">
	<path id="XMLID_28_" class="st11" d="M1221,525.5c0,6.9-5.6,12.5-12.5,12.5h-342c-6.9,0-12.5-5.6-12.5-12.5v-355
		c0-6.9,5.6-12.5,12.5-12.5h342c6.9,0,12.5,5.6,12.5,12.5V525.5z"/>
	<g id="XMLID_4_">
		<path id="XMLID_143_" class="st9" d="M1115.4,512.5H873c-1.7,0-3.1-1.4-3.1-3.1v-36.1c0-1.7,1.4-3.1,3.1-3.1h242.4
			c1.7,0,3.1,1.4,3.1,3.1v36.1C1118.5,511.1,1117.1,512.5,1115.4,512.5z"/>
		<path id="XMLID_151_" class="st9" d="M1203.2,514.6h-72.5c-1.7,0-3.1-1.4-3.1-3.1V303c0-1.7,1.4-3.1,3.1-3.1h72.5
			c1.7,0,3.1,1.4,3.1,3.1v208.6C1206.3,513.3,1204.9,514.6,1203.2,514.6z"/>
		<path id="XMLID_145_" class="st9" d="M1115.4,462.1H873c-1.7,0-3.1-1.4-3.1-3.1v-36.1c0-1.7,1.4-3.1,3.1-3.1h242.4
			c1.7,0,3.1,1.4,3.1,3.1V459C1118.5,460.7,1117.1,462.1,1115.4,462.1z"/>
		<path id="XMLID_146_" class="st9" d="M1115.4,410.4H873c-1.7,0-3.1-1.4-3.1-3.1v-36.1c0-1.7,1.4-3.1,3.1-3.1h242.4
			c1.7,0,3.1,1.4,3.1,3.1v36.1C1118.5,409,1117.1,410.4,1115.4,410.4z"/>
		<path id="XMLID_147_" class="st9" d="M1115.4,357.4H873c-1.7,0-3.1-1.4-3.1-3.1v-49.8c0-1.7,1.4-3.1,3.1-3.1h242.4
			c1.7,0,3.1,1.4,3.1,3.1v49.8C1118.5,356,1117.1,357.4,1115.4,357.4z"/>
	</g>
	<path id="XMLID_148_" class="st9" d="M1203.2,292.8H874.6c-1.7,0-3.1-1.4-3.1-3.1V208c0-1.7,1.4-3.1,3.1-3.1h328.6
		c1.7,0,3.1,1.4,3.1,3.1v81.7C1206.3,291.4,1204.9,292.8,1203.2,292.8z"/>
	<path id="XMLID_5_" class="st8" d="M1064.1,389.2h-181c-1.2,0-2.3-1-2.3-2.3v-1.3c0-1.2,1-2.3,2.3-2.3h181c1.2,0,2.3,1,2.3,2.3v1.3
		C1066.3,388.2,1065.3,389.2,1064.1,389.2z"/>
	<path id="XMLID_6_" class="st8" d="M1000.6,400.6H883.3c-1.4,0-2.5-1.1-2.5-2.5v-1.4c0-1.4,1.1-2.5,2.5-2.5h117.2
		c1.4,0,2.5,1.1,2.5,2.5v1.4C1003.1,399.4,1002,400.6,1000.6,400.6z"/>
	<path id="XMLID_7_" class="st8" d="M1061.7,440.9H883.8c-1.6,0-2.9-1.3-2.9-2.9v-1.6c0-1.6,1.3-2.9,2.9-2.9h177.9
		c1.6,0,2.9,1.3,2.9,2.9v1.6C1064.6,439.6,1063.3,440.9,1061.7,440.9z"/>
	<path id="XMLID_8_" class="st8" d="M1000.1,453.1H883.8c-1.7,0-3-1.4-3-3v-1.7c0-1.7,1.3-3,3-3H1000c1.7,0,3,1.3,3,3v1.7
		C1003.1,451.7,1001.7,453.1,1000.1,453.1z"/>
	<path id="XMLID_9_" class="st8" d="M1062.3,491.3H883.1c-1.3,0-2.3-1-2.3-2.3v-1.3c0-1.3,1-2.3,2.3-2.3h179.2c1.3,0,2.3,1,2.3,2.3
		v1.3C1064.6,490.3,1063.6,491.3,1062.3,491.3z"/>
	<path id="XMLID_10_" class="st8" d="M1000.3,502.5H883.6c-1.5,0-2.8-1.2-2.8-2.8v-1.6c0-1.5,1.2-2.8,2.8-2.8h116.7
		c1.5,0,2.8,1.2,2.8,2.8v1.6C1003.1,501.2,1001.8,502.5,1000.3,502.5z"/>
	<circle id="XMLID_11_" class="st11" cx="1092.3" cy="392" r="7.2"/>
	<circle id="XMLID_13_" class="st12" cx="1092.3" cy="443.3" r="7.2"/>
	<circle id="XMLID_14_" class="st11" cx="1092.3" cy="493.3" r="7.2"/>
	<g id="XMLID_15_">
		<path id="XMLID_12_" class="st13" d="M1180.6,386.3h-30c-1.3,0-2.3-1-2.3-2.3v-24.3c0-1.3,1-2.3,2.3-2.3h30c1.3,0,2.3,1,2.3,2.3
			V384C1182.9,385.3,1181.9,386.3,1180.6,386.3z"/>
		<path id="XMLID_16_" class="st14" d="M1180.6,422.3h-30c-1.3,0-2.3-1-2.3-2.3v-21.8c0-1.3,1-2.3,2.3-2.3h30c1.3,0,2.3,1,2.3,2.3
			V420C1182.9,421.3,1181.9,422.3,1180.6,422.3z"/>
		<path id="XMLID_17_" class="st15" d="M1180.6,458.6h-30c-1.3,0-2.3-1-2.3-2.3v-21.8c0-1.3,1-2.3,2.3-2.3h30c1.3,0,2.3,1,2.3,2.3
			v21.8C1182.9,457.6,1181.9,458.6,1180.6,458.6z"/>
		<path id="XMLID_18_" class="st12" d="M1180.6,496.6h-30c-1.3,0-2.3-1-2.3-2.3v-21.8c0-1.3,1-2.3,2.3-2.3h30c1.3,0,2.3,1,2.3,2.3
			v21.8C1182.9,495.6,1181.9,496.6,1180.6,496.6z"/>
	</g>
	<path id="XMLID_26_" class="st16" d="M1221,169.4V188H854v-18.6c0-6.9,7.2-11.4,14.1-11.4h341.7C1216.7,158,1221,162.5,1221,169.4z
		"/>
</g>
<g id="XMLID_21_">
	<path id="XMLID_70_" class="st17" d="M1449.7,195c-4,0.1-7.2,1.7-13.2,4.7c-3.7,1.9-6.9,3.4-9.4,4.7c-1.3,0.6-2.7-0.5-2.4-1.8
		c2.9-13.1,4.9-26.4,6.3-37.5c0.1-0.9,1-1.6,1.9-1.4c3.7,0.6,9.2-0.5,12.6-1.5c11.2-3.3,23.3-12.9,21.5-19.6c-1.1-4.2-7.5-5.7-8-5.8
		c-8.9-1.9-16.8,6.5-22.1,12.2c-0.4,0.4-0.8,0.8-1.2,1.3c-1.1,1.2-3,0.3-2.9-1.3c0-0.3,0.1-0.6,0.1-0.9c0-0.4,0.2-0.7,0.4-0.9
		c3.3-3.9,5.4-14.5,5.2-23.2c-0.1-4.8-0.3-11-4.5-13.5c-0.2-0.1-3.3-1.9-6.1-0.6c-3.8,1.7-4.1,7.9-4.5,19.6
		c-0.3,8.4,0.5,11.9,2.6,15.1c1.2,1.8,2.8,4.3,4.8,4.2c0.2,0,0.4-0.1,0.7-0.1c-1.8,9-3.9,18-6.3,26.9c-0.4,1.6-2.7,1.7-3.2,0.1
		c-1.2-3.7-2.5-6.8-3.6-9.2c-5.5-11.3-10.2-13-11.5-13.5c-0.7-0.2-5.6-1.7-8,0.6c-3.6,3.6-0.8,15,6.1,20.8c3.8,3.2,6.6,2.8,13.1,7.7
		c1.3,1,2.4,1.9,3.4,2.8c0.5,0.4,0.7,1.1,0.5,1.7c-4.6,14.7-10.2,29.1-17,42.8c-0.7,1.3-2.6,1.2-3.1-0.2c-0.8-2.3-1.9-4.6-3.2-6.7
		c-0.9-1.4-8.8-13.5-17.5-11.5c-3.3,0.8-6.1,3.4-7.3,6.4c-2.5,6.4,3,13.7,6.8,17.1c4.1,3.6,6,2.4,12.8,7.3c0.8,0.6,1.6,1.2,2.2,1.7
		s0.8,1.4,0.4,2.1c-5.9,9.8-12.4,19.2-19.3,28.1c-0.9,1.2-2.8,0.7-3-0.8l0,0c-0.9-6-1.7-11.8-6-16.7c-1.3-1.5-5.8-6.7-12.4-6.4
		c-0.3,0-7,0.4-9,4.7c-1.7,3.8,1.3,8.3,3.4,11.5c2.5,3.7,7.7,10.1,18.2,15.3c1,0.5,1.2,1.7,0.5,2.5c-10.7,13-22.2,25.5-33.8,38
		c-1.1,1.2-3,0.3-2.9-1.3c0.4-3.7,0.4-8.1-0.1-12.6c-0.2-1.4-3.4-27.9-15.4-29.5c-5.1-0.7-10.5,3.3-12.8,7.7
		c-4.8,9.1,1.6,24.1,11.1,29.5c4.2,2.4,9,2.8,12,7.7c1,1.6,1.4,3.1,1.7,4.3c0.1,0.5,0,1.1-0.4,1.5c-1.4,1.5-2.7,3-4.1,4.4
		c-11.7,12.7-24.3,24.6-37.2,36.2c-1,0.9-2.5,0.3-2.7-1c-0.5-2.7-1-6.3-1.3-10.8c-1.4-19.6,2.7-27.1-2.6-31.6
		c-3.8-3.3-10.5-3.2-14.5-0.4c-5.4,3.7-5.2,11.6-5.1,15.4c0.3,14.7,10.4,28,17.6,33.5c0.8,0.6,0.9,1.9,0.1,2.6
		c-12.1,10.6-24.4,21-36.5,31.4c-1.2,1.1-3.1-0.1-2.7-1.6c3.4-14.7,2.7-37.6-7.1-42.8c-4.2-2.2-10.5-1.4-14.1,1.7
		c-5.5,4.7-4,14.1-3,20.5c1.9,12,7.8,26.8,13.2,31.7c0.7,0.7,0.7,1.8,0,2.5c-10.7,9.4-21.3,18.9-31.4,28.8c-1.1,1.1-3,0.2-2.8-1.3
		c0.5-5.3,0-11.6-2-17.2c-0.8-2.3-5.9-16.1-16.7-17.1c-5.3-0.5-12,2.1-13.7,6.8c-1.2,3.3,0.4,6.6,9,18.8
		c7.1,10.1,11.7,16.6,14.6,19.4c0.7,0.6,0.7,1.7,0.1,2.3c-8.1,8.7-15.8,17.8-22.8,27.6c-18.5,25.8-31.3,58.1-32.3,90.4
		c-0.1,2.1,3,2.4,3.3,0.3c8.7-53.6,33.6-88.1,73.2-125.6c0.8-0.7,2-0.6,2.5,0.3c4.7,7.1,20.3,14.2,34.1,11.2
		c6.6-1.4,16.1-5.9,16.2-11.5c0.2-7.8-17-13.1-18.8-13.7c-2.9-0.9-7.2-2.2-12.3-2.1c-1.6,0-2.3-1.9-1.2-2.9
		c7.1-6.2,14.6-12.7,22.4-19.3c3.5-2.9,6.9-5.8,10.3-8.7c0.9-0.8,2.4-0.3,2.7,0.9c2.6,9.9,14.6,24,28.1,24.5c7,0.2,16.3-3.1,18-9.4
		c2.3-8.8-11.8-17.9-13.2-18.8c-5.8-3.7-13.3-6.2-19.7-6.8c-1.5-0.1-2.1-2-0.9-2.9c12.4-10.5,24.5-21,36.3-32.3
		c0.4-0.4,1-0.6,1.6-0.4c0.8,0.2,1.8,0.5,2.8,0.9c14.1,5.3,14.7,17.7,24.8,20.9c8.6,2.7,20.9-2.3,23.1-9.8
		c2.3-8.1-7.7-17.6-15.8-21.4c-6.6-3.1-13.7-3.3-20.1-2.2c-1.6,0.3-2.6-1.6-1.5-2.8c2-2.1,4.1-4.3,6.1-6.5c7-7.6,14.5-15.6,22-23.8
		c0.6-0.6,1.5-0.7,2.2-0.2c5.3,3.7,21.1,12.3,34.5,8.9c6-1.5,13.1-6,12.8-10.3c-0.2-3.3-4.9-5.5-6.8-6.4c-6.5-3-18.9-4.1-26.9,1.2
		c-1.8,1.2-4.3,1.3-6.9,1.2c-1.4-0.1-2.1-1.7-1.2-2.8c11-12.2,21.9-24.8,31.6-37.6c0.3-0.5,0.9-0.7,1.5-0.6c1.7,0.2,4.2,0.2,7.1,0.9
		c8.5,1.8,9.2,5.5,16,5.8c2.2,0.1,6.7,0.3,10.3-2.9c2.8-2.5,4.6-6.9,3.5-10.6c-2-7-14.1-9.4-22.4-8c-0.6,0.1-1.2,0.2-1.8,0.4
		c-1.5,0.4-2.6-1.2-1.8-2.5c1-1.5,2-3,2.9-4.6c5.5-9,9.9-21.1,13.4-34.2c0.3-1.2,1.8-1.6,2.7-0.8c0.3,0.3,0.7,0.5,1,0.8
		c10.7,8.2,29.5,7.2,35.9-2.1c2.4-3.5,3.8-9.2,1.3-13.2C1459.3,194.6,1451.6,194.9,1449.7,195z"/>
</g>
</svg>
